name baseline.mot
datacolumns 19
datarows 17
range 5.32499000000000 5.35164800000000
endheader
time	ground_force1_vx	ground_force1_vy	ground_force1_vz	ground_force1_px	ground_force1_py	ground_force1_pz	ground_force2_vx	ground_force2_vy	ground_force2_vz	ground_force2_px	ground_force2_py	ground_force2_pz	ground_torque1_x	ground_torque1_y	ground_torque1_z	ground_torque2_x	ground_torque2_y	ground_torque2_z	
5.32499000000000	-51.73734100000000	779.89811299999997	71.56220500000001	-0.03174200000000	0.00000000000000	0.14284000000000	-7.33233200000000	33.06244200000000	6.50765800000000	0.25927400000000	0.00000000000000	-0.09043200000000	0.00000000000000	11.93909000000000	0.00000000000000	0.00000000000000	2.68926900000000	0.00000000000000	
5.32664700000000	-52.34863500000000	778.77999000000000	71.46787200000000	-0.03264800000000	0.00000000000000	0.14277600000000	-8.27111200000000	39.40510700000000	7.54579100000000	0.26085200000000	0.00000000000000	-0.09100400000000	0.00000000000000	11.96964600000000	0.00000000000000	0.00000000000000	3.16348200000000	0.00000000000000	
5.32831600000000	-52.97146000000000	777.57857100000001	71.35080800000000	-0.03355500000000	0.00000000000000	0.14270900000000	-9.08946500000000	45.85111400000000	8.53733800000000	0.26229600000000	0.00000000000000	-0.09154300000000	0.00000000000000	12.00550600000000	0.00000000000000	0.00000000000000	3.63181600000000	0.00000000000000	
5.32997500000000	-53.60583100000000	776.29147100000000	71.21055600000000	-0.03446300000000	0.00000000000000	0.14263700000000	-9.75675700000000	52.29108400000000	9.45674500000000	0.26362700000000	0.00000000000000	-0.09205600000000	0.00000000000000	12.04681700000000	0.00000000000000	0.00000000000000	4.08415700000000	0.00000000000000	
5.33164200000000	-54.25171100000000	774.91627900000003	71.04669000000000	-0.03537200000000	0.00000000000000	0.14256200000000	-10.25067200000000	58.63539100000000	10.28397100000000	0.26486300000000	0.00000000000000	-0.09254400000000	0.00000000000000	12.09371200000000	0.00000000000000	0.00000000000000	4.51235700000000	0.00000000000000	
5.33331000000000	-54.90901400000000	773.45055400000001	70.85881000000001	-0.03628100000000	0.00000000000000	0.14248200000000	-10.55792300000000	64.81856399999999	11.00526900000000	0.26601600000000	0.00000000000000	-0.09301200000000	0.00000000000000	12.14630800000000	0.00000000000000	0.00000000000000	4.91058100000000	0.00000000000000	
5.33497600000000	-55.57760100000000	771.89183200000002	70.64654600000000	-0.03719100000000	0.00000000000000	0.14239900000000	-10.67412300000000	70.80101000000001	11.61332800000000	0.26709800000000	0.00000000000000	-0.09346000000000	0.00000000000000	12.20470500000000	0.00000000000000	0.00000000000000	5.27542000000000	0.00000000000000	
5.33665900000000	-56.25727500000000	770.23762599999998	70.40956000000000	-0.03810000000000	0.00000000000000	0.14231100000000	-10.60294700000000	76.56832100000000	12.10687400000000	0.26811800000000	0.00000000000000	-0.09389300000000	0.00000000000000	12.26898600000000	0.00000000000000	0.00000000000000	5.60578200000000	0.00000000000000	
5.33831500000000	-56.94778600000000	768.48542699999996	70.14754400000000	-0.03901000000000	0.00000000000000	0.14221900000000	-10.35478400000000	82.12863500000000	12.48984000000000	0.26908300000000	0.00000000000000	-0.09431100000000	0.00000000000000	12.33921500000000	0.00000000000000	0.00000000000000	5.90260900000000	0.00000000000000	
5.33999100000000	-57.64882400000000	766.63271099999997	69.86022300000000	-0.03992000000000	0.00000000000000	0.14212300000000	-9.94505700000000	87.50858599999999	12.77024900000000	0.26999900000000	0.00000000000000	-0.09471600000000	0.00000000000000	12.41543700000000	0.00000000000000	0.00000000000000	6.16847300000000	0.00000000000000	
5.34164400000000	-58.36002100000000	764.67693799999995	69.54735599999999	-0.04082900000000	0.00000000000000	0.14202300000000	-9.39243200000000	92.74844100000000	12.95896200000000	0.27087200000000	0.00000000000000	-0.09511000000000	0.00000000000000	12.49768000000000	0.00000000000000	0.00000000000000	6.40711500000000	0.00000000000000	
5.34331000000000	-59.08094600000000	762.61555599999997	69.20873400000001	-0.04173700000000	0.00000000000000	0.14191900000000	-8.71705700000000	97.89695399999999	13.06840800000000	0.27170500000000	0.00000000000000	-0.09549300000000	0.00000000000000	12.58594800000000	0.00000000000000	0.00000000000000	6.62295700000000	0.00000000000000	
5.34499000000000	-59.81110900000000	760.44600800000001	68.84418700000001	-0.04264500000000	0.00000000000000	0.14181100000000	-7.93899600000000	103.00642300000000	13.11140800000000	0.27250200000000	0.00000000000000	-0.09586700000000	0.00000000000000	12.68022600000000	0.00000000000000	0.00000000000000	6.82064700000000	0.00000000000000	
5.34664400000000	-60.54995600000000	758.16573000000005	68.45357799999999	-0.04355100000000	0.00000000000000	0.14169900000000	-7.07692900000000	108.12829000000001	13.10016500000000	0.27326500000000	0.00000000000000	-0.09623200000000	0.00000000000000	12.78047700000000	0.00000000000000	0.00000000000000	7.00466600000000	0.00000000000000	
5.34831800000000	-61.29686900000000	755.77216299999998	68.03680700000000	-0.04445700000000	0.00000000000000	0.14158200000000	-6.14717400000000	113.30954300000001	13.04548400000000	0.27399600000000	0.00000000000000	-0.09659000000000	0.00000000000000	12.88664200000000	0.00000000000000	0.00000000000000	7.17900600000000	0.00000000000000	
5.34997600000000	-62.05116600000000	753.26274899999999	67.59381500000001	-0.04536100000000	0.00000000000000	0.14146200000000	-5.16307400000000	118.59007099999999	12.95622400000000	0.27469700000000	0.00000000000000	-0.09694100000000	0.00000000000000	12.99864100000000	0.00000000000000	0.00000000000000	7.34694800000000	0.00000000000000	
5.35164800000000	-62.81209900000000	750.63494300000002	67.12457800000000	-0.04626500000000	0.00000000000000	0.14133700000000	-4.13469700000000	124.00098000000000	12.83899800000000	0.27536900000000	0.00000000000000	-0.09728600000000	0.00000000000000	13.11637000000000	0.00000000000000	0.00000000000000	7.51092600000000	0.00000000000000	
